Coordinates
version=1
nRows=7
nColumns=33
inDegrees=yes

Units are S.I. units (second, meters, Newtons, ...)
Angles are in degrees.

endheader
time	ground_thorax_rot_x	ground_thorax_rot_y	ground_thorax_rot_z	ground_thorax_tx	ground_thorax_ty	ground_thorax_tz	clav_prot_r	clav_elev_r	scapula_abduction_r	scapula_elevation_r	scapula_upward_rot_r	scapula_winging_r	shoulder_elv_r	plane_of_elev_r	axial_rot_r	elbow_flexion_r	pro_sup_r	wrist_flex_r	wrist_dev_r	clav_prot_l	clav_elev_l	scapula_abduction_l	scapula_elevation_l	scapula_upward_rot_l	scapula_winging_l	shoulder_elv_l	plane_of_elev_l	axial_rot_l	elbow_flexion_l	pro_sup_l	wrist_flex_l	wrist_dev_l
      3.66000000	     24.99038434	     29.70572724	     45.12287939	    -51.41818835	    771.76899163	      7.05986780	     17.19687505	     45.00000000	     45.00000000	     44.15550707	     45.00000000	  -4353.49316532	  -2234.52644077	    -90.00000000	      6.66171924	   2874.51495352	    262.94678501	     11.89580223	      8.70791413	     13.04047499	    -45.00000000	    -39.67077409	     45.00000000	    -45.00000000	   1172.35281347	  -4973.89462895	     19.69756919	    -28.42708128	    362.21015676	     37.74009348	     11.70334085	    -19.32353784
      3.67000000	     24.94749338	     29.59281331	     45.00525734	    -51.39640158	    772.39714492	      7.33854999	     16.96217411	     45.00000000	     45.00000000	     44.07863921	     45.00000000	  -4353.39390181	  -2234.31299066	    -90.00000000	      6.45913027	   2874.74010907	    262.76934390	     12.03165738	      8.72614077	     13.26030134	    -45.00000000	    -39.86595851	     45.00000000	    -45.00000000	   1172.44979409	  -4973.92328572	     19.89490178	    -28.52374598	    362.48549796	     37.64937154	     11.27020135	    -19.54450416
      3.68000000	     24.93847805	     29.63368975	     45.22346278	    -51.70968170	    772.99957555	      7.56496864	     16.98463274	     45.00000000	     45.00000000	     44.31935577	     45.00000000	  -4353.44027435	  -2234.36840083	    -90.00000000	      6.52669767	   2874.70492663	    262.45134638	     12.26620542	      8.72672944	     13.09353554	    -45.00000000	    -39.82018999	     45.00000000	    -45.00000000	   1172.43825735	  -4973.89837452	     19.82354675	    -28.42436574	    362.53037275	     37.63069170	     11.21225811	    -19.62026374
      3.69000000	     25.09279521	     29.58201656	     45.00727906	    -52.34980054	    773.58684317	      7.73585984	     16.96291449	     45.00000000	     45.00000000	     44.42056277	     45.00000000	  -4353.16715533	  -2234.38347722	    -90.00000000	      6.55298915	   2874.87849481	    262.02605312	     12.56511006	      8.80740907	     12.98236781	    -45.00000000	    -39.85441573	     45.00000000	    -45.00000000	   1172.46351596	  -4973.93217935	     20.10750615	    -28.14965803	    362.68926068	     37.53137849	     11.00391503	    -19.79782223
      3.70000000	     24.94153860	     29.63019957	     45.32186092	    -53.30731486	    774.17528890	      7.85324365	     17.01296863	     45.00000000	     45.00000000	     44.70555396	     45.00000000	  -4353.40897232	  -2234.51289782	    -90.00000000	      6.69502847	   2874.74716433	    261.31545264	     12.78668169	      8.80085877	     12.98096151	    -45.00000000	    -39.78135981	     45.00000000	    -45.00000000	   1172.65564359	  -4973.80967838	     20.17532127	    -27.54603956	    362.88759100	     37.44260943	     10.91028589	    -19.93066471
      3.71000000	     24.90517273	     29.67658645	     45.43486209	    -54.56674453	    774.78969304	      7.92373802	     17.00073170	     45.00000000	     45.00000000	     44.98124868	     45.00000000	  -4353.42073959	  -2234.70021804	    -90.00000000	      6.89565549	   2874.74774008	    260.35302950	     13.13124182	      8.87328317	     12.97316706	    -45.00000000	    -39.82227045	     45.00000000	    -45.00000000	   1172.78698559	  -4973.73950966	     20.39940956	    -26.71571968	    362.95474858	     37.35711841	     10.83028601	    -20.07455393
      3.72000000	     24.93453057	     29.58332336	     45.38061249	    -56.11760183	    775.46426204	      7.95737445	     17.02395839	     45.00000000	     45.00000000	     45.00000000	     45.00000000	  -4353.20381209	  -2234.92816362	    -90.00000000	      7.13719897	   2874.74632272	    259.15197560	     13.46452435	      8.96015899	     12.94493109	    -45.00000000	    -39.85982757	     45.00000000	    -45.00000000	   1172.96429835	  -4973.57821367	     20.69943430	    -25.69982537	    363.08733917	     37.25531392	     10.79132801	    -20.22820161
